<?xml version="1.0" encoding="UTF-8" standalone="no"?>
<!-- Created with Inkscape (http://www.inkscape.org/) -->

<svg
   width="16"
   height="16"
   viewBox="0 0 16 16"
   version="1.1"
   id="svg1"
   xml:space="preserve"
   sodipodi:docname="Randy-01W.svg"
   xmlns:inkscape="http://www.inkscape.org/namespaces/inkscape"
   xmlns:sodipodi="http://sodipodi.sourceforge.net/DTD/sodipodi-0.dtd"
   xmlns="http://www.w3.org/2000/svg"
   xmlns:svg="http://www.w3.org/2000/svg"><sodipodi:namedview
     id="namedview1"
     pagecolor="#505050"
     bordercolor="#eeeeee"
     borderopacity="1"
     inkscape:showpageshadow="0"
     inkscape:pageopacity="0"
     inkscape:pagecheckerboard="0"
     inkscape:deskcolor="#505050"
     inkscape:document-units="px"><inkscape:page
       x="0"
       y="0"
       width="16"
       height="16"
       id="page2"
       margin="0"
       bleed="0" /></sodipodi:namedview><defs
     id="defs1"><clipPath
       clipPathUnits="userSpaceOnUse"
       id="clipPath2"><path
         d="M 0,1200 H 901.462 V 0 H 0 Z"
         transform="translate(-48.769001,-1025.4523)"
         id="path2" /></clipPath></defs><g
     inkscape:label="Layer 1"
     inkscape:groupmode="layer"
     id="layer1"><path
       id="path1-3"
       d="m 0,0 c -16.076,1.914 -31.649,3.769 -48.769,5.807 15.343,28.506 35.976,50.795 58.894,70.935 23.188,20.38 49.691,35.327 81.013,43.211 -6.181,8.379 -15.766,10.019 -21.577,16.171 0.082,2.486 1.958,2.871 3.348,3.449 33.83,14.078 68.594,24.938 104.709,31.597 18.894,3.483 36.113,-0.412 52.146,-9.812 7.768,-4.553 14.782,-5.005 23.358,-2.906 42.034,10.293 84.665,16.222 128.066,14.826 23.138,-0.744 45.887,-4.078 67.755,-12.092 4.048,-1.484 8.041,-2.781 12.47,-2.387 28.92,2.57 57.107,-1.878 84.942,-9.219 45.452,-11.985 86.452,-33.234 124.666,-60.235 29.964,-21.17 56.794,-45.897 82.101,-72.339 4.772,-4.986 8.793,-10.734 13.816,-15.427 5.278,-4.933 6.097,-10.608 4.894,-17.067 -3.314,-17.784 -6.175,-35.643 -8.145,-53.622 -2.473,-22.58 -4.49,-45.187 -1.141,-67.885 0.971,-6.583 2.823,-12.86 5.838,-18.765 1.712,-3.35 4.215,-4.689 8.111,-2.988 5.699,2.488 11.561,4.602 17.233,6.829 2.724,-3.021 0.668,-5.39 -0.186,-7.61 -3.66,-9.525 -7.172,-19.133 -11.428,-28.395 -3.268,-7.111 -2.96,-13.846 -0.795,-21.049 7.171,-23.849 18.762,-45.574 31.352,-66.883 10.9,-18.448 24.143,-35.299 35.792,-53.242 5.365,-8.262 5.513,-15.3 1.091,-23.839 -7.184,-13.868 -18.29,-23.978 -29.957,-33.672 -4.026,-3.345 -9.672,-5.772 -11.297,-10.586 -1.616,-4.793 3.622,-8.74 5.4,-13.25 0.965,-2.451 1.961,-4.896 2.758,-7.402 3.527,-11.077 2.199,-20.901 -7.827,-28.165 -3.904,-2.829 -4.794,-5.595 -1.78,-9.815 3.086,-4.321 4.26,-9.596 5.641,-14.684 1.937,-7.135 1.445,-9.716 -4.62,-13.34 -7.682,-4.589 -12.047,-12.012 -17.302,-18.639 -4.87,-6.142 -4.836,-13.557 -2.992,-20.791 3.636,-14.266 3.914,-28.742 2.299,-43.17 -1.653,-14.771 -6.787,-28.458 -19.193,-37.644 -10.811,-8.004 -23.489,-11.543 -37.008,-11.932 -19.11,-0.551 -37.09,4.882 -54.997,10.452 -10.354,3.22 -20.72,6.638 -30.624,11.002 -13.517,5.956 -26.962,5.025 -40.537,1.342 -32.219,-8.744 -52.075,-29.463 -59.313,-62.116 -4.697,-21.186 -9.637,-42.326 -13.881,-63.603 -5.022,-25.176 -8.735,-50.523 -8.709,-76.338 0.008,-7.241 2.513,-11.001 8.818,-14.517 41.496,-23.137 80.643,-49.811 116.756,-80.719 31.34,-26.824 60.538,-55.749 83.507,-90.352 3.819,-5.754 7.045,-11.901 10.866,-17.654 9.279,-13.97 -1.196,-28.168 -16.536,-26.835 -9.008,0.783 -17.538,2.588 -25.769,6.101 -38.723,16.535 -77.781,32.237 -117.444,46.371 -39.35,14.026 -78.801,27.818 -119.913,35.974 -14.204,2.818 -28.522,5.054 -43.094,4.304 -20.22,-1.043 -39.947,3.303 -59.858,5.501 -21.899,2.417 -43.83,4.141 -65.807,5.644 -17.773,1.216 -35.521,1.205 -53.282,1.093 -41.59,-0.263 -82.639,-4.652 -123.064,-15.082 -22.162,-5.718 -44.532,-3.038 -66.294,3.204 -11.821,3.392 -15.345,10.383 -12.973,22.725 3.483,18.116 11.387,34.17 22.712,48.692 23.867,30.607 55.402,51.112 89.499,68.235 25.064,12.586 51.223,22.504 77.998,30.724 6.821,2.095 9.773,5.498 11.22,12.704 6.793,33.834 12.854,67.779 17.21,102.006 3.323,26.11 5.334,52.322 4.142,78.691 -0.36,7.955 -2.383,15.579 -4.357,23.21 -1.022,3.947 -3.745,6.823 -6.546,9.687 -25.319,25.892 -51.056,51.395 -75.735,77.885 -38.104,40.9 -76.691,81.407 -111.457,125.283 -5.511,6.954 -10.542,14.292 -15.712,21.513 -5.985,8.358 -10.127,17.574 -13.447,27.32 -11.983,35.18 -24.278,70.254 -36.451,105.368 -0.755,2.176 -1.305,4.442 -2.256,6.526 -2.913,6.387 -1.398,11.904 2.386,17.508 6.844,10.135 6.704,10.273 -0.36,20.202 -3.814,5.362 -7.388,11.136 -15.04,11.472 -2.768,0.121 -3.051,2.061 -3.053,4.097 -0.008,10.284 0.847,20.387 7.239,29.055 1.382,1.875 2.689,3.716 3.346,5.976 2.504,8.616 0.566,11.275 -8.487,11.443 -3.95,0.073 -7.908,0.093 -11.855,-0.065 -3.635,-0.145 -4.806,1.583 -3.983,4.851 5.239,20.828 11.212,41.333 25.932,57.926 1.744,1.967 3.363,4.05 4.943,6.153 C -0.246,-2.618 -0.33,-1.851 0,0"
       style="fill:#9106fd;fill-opacity:1;fill-rule:nonzero;stroke:none"
       transform="matrix(0.01334521,0,0,-0.01334521,2.6357328,2.3151279)"
       clip-path="url(#clipPath2)" /></g></svg>
